<svg width="512" height="512" viewBox="0 0 512 512" xmlns="http://www.w3.org/2000/svg">
  <!-- Background gradient -->
  <defs>
    <linearGradient id="bg" x1="0%" y1="0%" x2="100%" y2="100%">
      <stop offset="0%" style="stop-color:#3B82F6;stop-opacity:1" />
      <stop offset="50%" style="stop-color:#8B5CF6;stop-opacity:1" />
      <stop offset="100%" style="stop-color:#EC4899;stop-opacity:1" />
    </linearGradient>
    <linearGradient id="text" x1="0%" y1="0%" x2="100%" y2="100%">
      <stop offset="0%" style="stop-color:#FFFFFF;stop-opacity:1" />
      <stop offset="100%" style="stop-color:#F3F4F6;stop-opacity:1" />
    </linearGradient>
  </defs>
  
  <!-- Background circle -->
  <circle cx="256" cy="256" r="240" fill="url(#bg)" stroke="#1E40AF" stroke-width="8"/>
  
  <!-- Inner circle -->
  <circle cx="256" cy="256" r="200" fill="none" stroke="url(#text)" stroke-width="4" opacity="0.3"/>
  
  <!-- Letter E (English) -->
  <text x="256" y="320" font-family="Arial, sans-serif" font-size="200" font-weight="bold" 
        text-anchor="middle" fill="url(#text)">E</text>
  
  <!-- Game controller icon -->
  <g transform="translate(180, 120)">
    <!-- Controller body -->
    <rect x="0" y="20" width="80" height="40" rx="20" fill="url(#text)" opacity="0.9"/>
    <!-- Left stick -->
    <circle cx="20" cy="40" r="8" fill="url(#bg)"/>
    <!-- Right stick -->
    <circle cx="60" cy="40" r="8" fill="url(#bg)"/>
    <!-- Buttons -->
    <circle cx="40" cy="25" r="4" fill="url(#bg)"/>
    <circle cx="50" cy="25" r="4" fill="url(#bg)"/>
  </g>
  
  <!-- Stars for decoration -->
  <g fill="url(#text)" opacity="0.8">
    <polygon points="100,80 105,95 120,95 108,105 113,120 100,110 87,120 92,105 80,95 95,95" transform="scale(0.5)"/>
    <polygon points="100,80 105,95 120,95 108,105 113,120 100,110 87,120 92,105 80,95 95,95" transform="translate(350, 50) scale(0.3)"/>
    <polygon points="100,80 105,95 120,95 108,105 113,120 100,110 87,120 92,105 80,95 95,95" transform="translate(80, 350) scale(0.4)"/>
  </g>
</svg>
